<svg id="visual" viewBox="0 0 900 600" width="900" height="600" xmlns="http://www.w3.org/2000/svg" xmlns:xlink="http://www.w3.org/1999/xlink" version="1.1"><rect x="0" y="0" width="900" height="600" fill="#001220"></rect><path d="M0 429L21.5 430.3C43 431.7 86 434.3 128.8 428.2C171.7 422 214.3 407 257.2 405C300 403 343 414 385.8 409.2C428.7 404.3 471.3 383.7 514.2 376.8C557 370 600 377 642.8 389.3C685.7 401.7 728.3 419.3 771.2 421C814 422.7 857 408.3 878.5 401.2L900 394L900 601L878.5 601C857 601 814 601 771.2 601C728.3 601 685.7 601 642.8 601C600 601 557 601 514.2 601C471.3 601 428.7 601 385.8 601C343 601 300 601 257.2 601C214.3 601 171.7 601 128.8 601C86 601 43 601 21.5 601L0 601Z" fill="#fa7268"></path><path d="M0 456L21.5 455.8C43 455.7 86 455.3 128.8 453.8C171.7 452.3 214.3 449.7 257.2 448.8C300 448 343 449 385.8 442.7C428.7 436.3 471.3 422.7 514.2 417C557 411.3 600 413.7 642.8 413.3C685.7 413 728.3 410 771.2 413.3C814 416.7 857 426.3 878.5 431.2L900 436L900 601L878.5 601C857 601 814 601 771.2 601C728.3 601 685.7 601 642.8 601C600 601 557 601 514.2 601C471.3 601 428.7 601 385.8 601C343 601 300 601 257.2 601C214.3 601 171.7 601 128.8 601C86 601 43 601 21.5 601L0 601Z" fill="#ef5f67"></path><path d="M0 487L21.5 486.8C43 486.7 86 486.3 128.8 488.8C171.7 491.3 214.3 496.7 257.2 496.5C300 496.3 343 490.7 385.8 488.2C428.7 485.7 471.3 486.3 514.2 487.8C557 489.3 600 491.7 642.8 483.8C685.7 476 728.3 458 771.2 459C814 460 857 480 878.5 490L900 500L900 601L878.5 601C857 601 814 601 771.2 601C728.3 601 685.7 601 642.8 601C600 601 557 601 514.2 601C471.3 601 428.7 601 385.8 601C343 601 300 601 257.2 601C214.3 601 171.7 601 128.8 601C86 601 43 601 21.5 601L0 601Z" fill="#e34c67"></path><path d="M0 523L21.5 523.2C43 523.3 86 523.7 128.8 518.7C171.7 513.7 214.3 503.3 257.2 498C300 492.7 343 492.3 385.8 498C428.7 503.7 471.3 515.3 514.2 514C557 512.7 600 498.3 642.8 496.2C685.7 494 728.3 504 771.2 510.7C814 517.3 857 520.7 878.5 522.3L900 524L900 601L878.5 601C857 601 814 601 771.2 601C728.3 601 685.7 601 642.8 601C600 601 557 601 514.2 601C471.3 601 428.7 601 385.8 601C343 601 300 601 257.2 601C214.3 601 171.7 601 128.8 601C86 601 43 601 21.5 601L0 601Z" fill="#d53867"></path><path d="M0 524L21.5 529.2C43 534.3 86 544.7 128.8 547.3C171.7 550 214.3 545 257.2 543.7C300 542.3 343 544.7 385.8 542.2C428.7 539.7 471.3 532.3 514.2 533.7C557 535 600 545 642.8 546.5C685.7 548 728.3 541 771.2 541C814 541 857 548 878.5 551.5L900 555L900 601L878.5 601C857 601 814 601 771.2 601C728.3 601 685.7 601 642.8 601C600 601 557 601 514.2 601C471.3 601 428.7 601 385.8 601C343 601 300 601 257.2 601C214.3 601 171.7 601 128.8 601C86 601 43 601 21.5 601L0 601Z" fill="#c62368"></path></svg>